<?xml version="1.0" encoding="utf-8"?>
<!-- Generator: Adobe Illustrator 21.0.2, SVG Export Plug-In . SVG Version: 6.00 Build 0)  -->
<svg version="1.1" id="Слой_1" xmlns="http://www.w3.org/2000/svg" xmlns:xlink="http://www.w3.org/1999/xlink" x="0px" y="0px"
	 viewBox="0 0 26 26" style="enable-background:new 0 0 26 26;" xml:space="preserve">
<style type="text/css">
	.st0{fill:#FF5050;}
	.st1{fill:none;stroke:#560707;stroke-miterlimit:10;}
</style>
<g>
	<path class="st0" d="M24.3,19.5c-4.6-2.7-11.2,1.2-11.2,6.5c0-5.4-6.6-9.1-11.3-6.5c4.6-2.7,4.6-10.3,0-13C6.4,9.2,13,5.4,13,0.1
		c0,5.4,6.6,9.1,11.3,6.5C19.6,9.2,19.7,16.8,24.3,19.5z"/>
	<path class="st1" d="M24.3,19.5c-4.6-2.7-11.2,1.2-11.2,6.5c0-5.4-6.6-9.1-11.3-6.5c4.6-2.7,4.6-10.3,0-13C6.4,9.2,13,5.4,13,0.1
		c0,5.4,6.6,9.1,11.3,6.5C19.6,9.2,19.7,16.8,24.3,19.5z"/>
</g>
</svg>
